<?xml version="1.0" encoding="iso-8859-1"?>
<!-- Uploaded to: SVG Repo, www.svgrepo.com, Generator: SVG Repo Mixer Tools -->
<svg fill="#000000" height="800px" width="800px" version="1.1" id="Layer_1" xmlns="http://www.w3.org/2000/svg" xmlns:xlink="http://www.w3.org/1999/xlink" 
	 viewBox="0 0 512 512" xml:space="preserve">
<g>
	<g>
		<path d="M297.02,126.539c28.228-23.431,47.972-42.137,47.972-71.025C344.991,24.385,321.776,0,292.144,0
			C276.408,0,264.523,6.696,256,15.398C247.476,6.696,235.591,0,219.855,0c-29.634,0-52.848,24.385-52.848,55.513
			c0,28.888,19.744,47.594,47.973,71.025c-87.849,18.902-153.924,97.103-153.924,190.517C61.056,424.547,148.509,512,256,512
			s194.944-87.453,194.944-194.944C450.944,223.642,384.868,145.441,297.02,126.539z M200.425,55.513
			c0-10.982,6.674-22.094,19.429-22.094c14.185,0,19.783,17.879,20.087,18.885c2.056,7.153,8.605,12.091,16.057,12.091
			c7.496,0,14.072-4.988,16.089-12.2c0.057-0.189,5.665-18.776,20.057-18.776c12.755,0,19.429,11.113,19.429,22.094
			c0,15.159-14.251,27.555-43.906,51.94c-3.732,3.068-7.626,6.272-11.668,9.638c-4.041-3.366-7.936-6.57-11.668-9.638
			C214.676,83.068,200.425,70.672,200.425,55.513z M256,445.162c-70.64,0-128.106-57.466-128.106-128.106S185.36,188.95,256,188.95
			c70.64,0,128.106,57.466,128.106,128.106S326.64,445.162,256,445.162z"/>
	</g>
</g>
</svg>